<svg xmlns="http://www.w3.org/2000/svg" viewBox="0 0 100 100" width="100" height="100">
  <defs>
    <linearGradient id="gradient" x1="0%" y1="0%" x2="100%" y2="100%">
      <stop offset="0%" style="stop-color:#A259FF;stop-opacity:1" />
      <stop offset="100%" style="stop-color:#F8A3FF;stop-opacity:1" />
    </linearGradient>
  </defs>
  <circle cx="50" cy="50" r="48" fill="url(#gradient)" stroke="#2A2A2D" stroke-width="2" opacity="0.9"/>
  <path d="M50 25 C35 25 25 35 25 50 C25 55 27 60 30 63 C35 68 42 70 50 70 C58 70 65 68 70 63 C73 60 75 55 75 50 C75 35 65 25 50 25 Z" fill="rgba(255, 255, 255, 0.2)"/>
  <circle cx="50" cy="40" r="12" fill="rgba(255, 255, 255, 0.9)"/>
  <path d="M50 58 C35 58 25 65 25 75 L75 75 C75 65 65 58 50 58 Z" fill="rgba(255, 255, 255, 0.9)"/>
</svg>